<svg xmlns="http://www.w3.org/2000/svg" viewBox="0 0 280 460" role="img" aria-labelledby="title desc"><title id="title">Ten of Cups</title><desc id="desc">10 engraved two handled goblets arranged in a parchment framed landscape.</desc><g stroke-linecap="round" stroke-linejoin="round"><rect x="3" y="3" width="274" height="454" rx="20" fill="#fff7df" stroke="#292449" stroke-width="3"/><rect x="10" y="10" width="260" height="440" rx="14" fill="#ff7fab"/><rect x="22" y="57" width="236" height="322" rx="9" fill="#fff7df" stroke="#292449" stroke-width="1.8"/><rect x="111.0" y="21" width="58" height="27" rx="13.5" fill="#fff7df" stroke="#292449" stroke-width="1.7999999999999998"/><text x="140" y="39" text-anchor="middle" font-family="Trebuchet MS, Arial, sans-serif" font-weight="700" font-size="13" letter-spacing="0.8" fill="#292449">10</text><path d="M34 33L44 28L40 40Z" fill="#fff7df" stroke="#292449" stroke-width="1.35" /><path d="M238 28L246 35L234 39Z" fill="#fff7df" stroke="#292449" stroke-width="1.35" /><rect x="22" y="390" width="236" height="51" rx="9" fill="#fff7df" stroke="#292449" stroke-width="1.8"/><text x="140" y="420" text-anchor="middle" font-family="Trebuchet MS, Arial, sans-serif" font-weight="700" font-size="12.5" letter-spacing="0.25" fill="#292449">TEN OF CUPS</text><g clip-path="url(#scene)"><defs><clipPath id="scene"><rect x="23" y="58" width="234" height="320"/></clipPath></defs><path d="M25 359q16 -6 32 0t32 0t32 0t32 0t32 0t32 0t32 0" fill="none" stroke="#63dbc5" stroke-width="0.8250000000000001" /><path d="M25 366q16 -6 32 0t32 0t32 0t32 0t32 0t32 0t32 0" fill="none" stroke="#63dbc5" stroke-width="0.8250000000000001" /><path d="M25 373q16 -6 32 0t32 0t32 0t32 0t32 0t32 0t32 0" fill="none" stroke="#63dbc5" stroke-width="0.8250000000000001" /><g transform="translate(40 80) scale(0.35)"><path d="M-21 6C-35 7 -34 -7 -23 -9C-24 -24 -6 -30 4 -19C15 -27 29 -18 26 -8C39 -3 32 9 19 6Z" fill="#fff7df" stroke="#292449" stroke-width="0.8999999999999999" /><path d="M-18 1Q-8 -4 2 1M9 1Q15 -3 21 1" fill="none" stroke="#292449" stroke-width="0.675" /></g><g transform="translate(240 82) scale(0.35)"><path d="M-21 6C-35 7 -34 -7 -23 -9C-24 -24 -6 -30 4 -19C15 -27 29 -18 26 -8C39 -3 32 9 19 6Z" fill="#fff7df" stroke="#292449" stroke-width="0.8999999999999999" /><path d="M-18 1Q-8 -4 2 1M9 1Q15 -3 21 1" fill="none" stroke="#292449" stroke-width="0.675" /></g><g transform="translate(82 94) scale(0.62)"><path d="M-17 -22L17 -22Q17 2 4 6L4 19L14 22L14 26L-14 26L-14 22L-4 19L-4 6Q-17 2 -17 -22Z" fill="#6db7fa" stroke="#292449" stroke-width="1.275" /><ellipse cx="0" cy="-22" rx="17" ry="4" fill="#fff7df" stroke="#292449" stroke-width="0.9750000000000001"/><path d="M-11 -13Q0 -7 11 -13M-10 -8Q0 -2 10 -8M0 -17L0 1" fill="none" stroke="#292449" stroke-width="0.8250000000000001" /><path d="M-17 -16Q-30 -23 -26 -9Q-22 0 -12 -1M17 -16Q30 -23 26 -9Q22 0 12 -1" fill="none" stroke="#292449" stroke-width="1.0499999999999998" /><path d="M-9 23L9 23" fill="none" stroke="#292449" stroke-width="0.75" /></g><g transform="translate(198 94) scale(0.62)"><path d="M-17 -22L17 -22Q17 2 4 6L4 19L14 22L14 26L-14 26L-14 22L-4 19L-4 6Q-17 2 -17 -22Z" fill="#6db7fa" stroke="#292449" stroke-width="1.275" /><ellipse cx="0" cy="-22" rx="17" ry="4" fill="#fff7df" stroke="#292449" stroke-width="0.9750000000000001"/><path d="M-11 -13Q0 -7 11 -13M-10 -8Q0 -2 10 -8M0 -17L0 1" fill="none" stroke="#292449" stroke-width="0.8250000000000001" /><path d="M-17 -16Q-30 -23 -26 -9Q-22 0 -12 -1M17 -16Q30 -23 26 -9Q22 0 12 -1" fill="none" stroke="#292449" stroke-width="1.0499999999999998" /><path d="M-9 23L9 23" fill="none" stroke="#292449" stroke-width="0.75" /></g><g transform="translate(82 155) scale(0.62)"><path d="M-17 -22L17 -22Q17 2 4 6L4 19L14 22L14 26L-14 26L-14 22L-4 19L-4 6Q-17 2 -17 -22Z" fill="#6db7fa" stroke="#292449" stroke-width="1.275" /><ellipse cx="0" cy="-22" rx="17" ry="4" fill="#fff7df" stroke="#292449" stroke-width="0.9750000000000001"/><path d="M-11 -13Q0 -7 11 -13M-10 -8Q0 -2 10 -8M0 -17L0 1" fill="none" stroke="#292449" stroke-width="0.8250000000000001" /><path d="M-17 -16Q-30 -23 -26 -9Q-22 0 -12 -1M17 -16Q30 -23 26 -9Q22 0 12 -1" fill="none" stroke="#292449" stroke-width="1.0499999999999998" /><path d="M-9 23L9 23" fill="none" stroke="#292449" stroke-width="0.75" /></g><g transform="translate(198 155) scale(0.62)"><path d="M-17 -22L17 -22Q17 2 4 6L4 19L14 22L14 26L-14 26L-14 22L-4 19L-4 6Q-17 2 -17 -22Z" fill="#6db7fa" stroke="#292449" stroke-width="1.275" /><ellipse cx="0" cy="-22" rx="17" ry="4" fill="#fff7df" stroke="#292449" stroke-width="0.9750000000000001"/><path d="M-11 -13Q0 -7 11 -13M-10 -8Q0 -2 10 -8M0 -17L0 1" fill="none" stroke="#292449" stroke-width="0.8250000000000001" /><path d="M-17 -16Q-30 -23 -26 -9Q-22 0 -12 -1M17 -16Q30 -23 26 -9Q22 0 12 -1" fill="none" stroke="#292449" stroke-width="1.0499999999999998" /><path d="M-9 23L9 23" fill="none" stroke="#292449" stroke-width="0.75" /></g><g transform="translate(82 219) scale(0.62)"><path d="M-17 -22L17 -22Q17 2 4 6L4 19L14 22L14 26L-14 26L-14 22L-4 19L-4 6Q-17 2 -17 -22Z" fill="#6db7fa" stroke="#292449" stroke-width="1.275" /><ellipse cx="0" cy="-22" rx="17" ry="4" fill="#fff7df" stroke="#292449" stroke-width="0.9750000000000001"/><path d="M-11 -13Q0 -7 11 -13M-10 -8Q0 -2 10 -8M0 -17L0 1" fill="none" stroke="#292449" stroke-width="0.8250000000000001" /><path d="M-17 -16Q-30 -23 -26 -9Q-22 0 -12 -1M17 -16Q30 -23 26 -9Q22 0 12 -1" fill="none" stroke="#292449" stroke-width="1.0499999999999998" /><path d="M-9 23L9 23" fill="none" stroke="#292449" stroke-width="0.75" /></g><g transform="translate(198 219) scale(0.62)"><path d="M-17 -22L17 -22Q17 2 4 6L4 19L14 22L14 26L-14 26L-14 22L-4 19L-4 6Q-17 2 -17 -22Z" fill="#6db7fa" stroke="#292449" stroke-width="1.275" /><ellipse cx="0" cy="-22" rx="17" ry="4" fill="#fff7df" stroke="#292449" stroke-width="0.9750000000000001"/><path d="M-11 -13Q0 -7 11 -13M-10 -8Q0 -2 10 -8M0 -17L0 1" fill="none" stroke="#292449" stroke-width="0.8250000000000001" /><path d="M-17 -16Q-30 -23 -26 -9Q-22 0 -12 -1M17 -16Q30 -23 26 -9Q22 0 12 -1" fill="none" stroke="#292449" stroke-width="1.0499999999999998" /><path d="M-9 23L9 23" fill="none" stroke="#292449" stroke-width="0.75" /></g><g transform="translate(82 283) scale(0.62)"><path d="M-17 -22L17 -22Q17 2 4 6L4 19L14 22L14 26L-14 26L-14 22L-4 19L-4 6Q-17 2 -17 -22Z" fill="#6db7fa" stroke="#292449" stroke-width="1.275" /><ellipse cx="0" cy="-22" rx="17" ry="4" fill="#fff7df" stroke="#292449" stroke-width="0.9750000000000001"/><path d="M-11 -13Q0 -7 11 -13M-10 -8Q0 -2 10 -8M0 -17L0 1" fill="none" stroke="#292449" stroke-width="0.8250000000000001" /><path d="M-17 -16Q-30 -23 -26 -9Q-22 0 -12 -1M17 -16Q30 -23 26 -9Q22 0 12 -1" fill="none" stroke="#292449" stroke-width="1.0499999999999998" /><path d="M-9 23L9 23" fill="none" stroke="#292449" stroke-width="0.75" /></g><g transform="translate(198 283) scale(0.62)"><path d="M-17 -22L17 -22Q17 2 4 6L4 19L14 22L14 26L-14 26L-14 22L-4 19L-4 6Q-17 2 -17 -22Z" fill="#6db7fa" stroke="#292449" stroke-width="1.275" /><ellipse cx="0" cy="-22" rx="17" ry="4" fill="#fff7df" stroke="#292449" stroke-width="0.9750000000000001"/><path d="M-11 -13Q0 -7 11 -13M-10 -8Q0 -2 10 -8M0 -17L0 1" fill="none" stroke="#292449" stroke-width="0.8250000000000001" /><path d="M-17 -16Q-30 -23 -26 -9Q-22 0 -12 -1M17 -16Q30 -23 26 -9Q22 0 12 -1" fill="none" stroke="#292449" stroke-width="1.0499999999999998" /><path d="M-9 23L9 23" fill="none" stroke="#292449" stroke-width="0.75" /></g><g transform="translate(82 344) scale(0.62)"><path d="M-17 -22L17 -22Q17 2 4 6L4 19L14 22L14 26L-14 26L-14 22L-4 19L-4 6Q-17 2 -17 -22Z" fill="#6db7fa" stroke="#292449" stroke-width="1.275" /><ellipse cx="0" cy="-22" rx="17" ry="4" fill="#fff7df" stroke="#292449" stroke-width="0.9750000000000001"/><path d="M-11 -13Q0 -7 11 -13M-10 -8Q0 -2 10 -8M0 -17L0 1" fill="none" stroke="#292449" stroke-width="0.8250000000000001" /><path d="M-17 -16Q-30 -23 -26 -9Q-22 0 -12 -1M17 -16Q30 -23 26 -9Q22 0 12 -1" fill="none" stroke="#292449" stroke-width="1.0499999999999998" /><path d="M-9 23L9 23" fill="none" stroke="#292449" stroke-width="0.75" /></g><g transform="translate(198 344) scale(0.62)"><path d="M-17 -22L17 -22Q17 2 4 6L4 19L14 22L14 26L-14 26L-14 22L-4 19L-4 6Q-17 2 -17 -22Z" fill="#6db7fa" stroke="#292449" stroke-width="1.275" /><ellipse cx="0" cy="-22" rx="17" ry="4" fill="#fff7df" stroke="#292449" stroke-width="0.9750000000000001"/><path d="M-11 -13Q0 -7 11 -13M-10 -8Q0 -2 10 -8M0 -17L0 1" fill="none" stroke="#292449" stroke-width="0.8250000000000001" /><path d="M-17 -16Q-30 -23 -26 -9Q-22 0 -12 -1M17 -16Q30 -23 26 -9Q22 0 12 -1" fill="none" stroke="#292449" stroke-width="1.0499999999999998" /><path d="M-9 23L9 23" fill="none" stroke="#292449" stroke-width="0.75" /></g><path d="M130 88Q140 79 150 88M135 84L140 78L145 84" fill="none" stroke="#292449" stroke-width="0.8999999999999999" /></g></g></svg>