<svg xmlns="http://www.w3.org/2000/svg" viewBox="0 0 280 460" role="img" aria-labelledby="title desc"><title id="title">The Hierophant</title><desc id="desc">A ceremonial figure sits beneath a temple arch with a triple cross and crossed keys.</desc><g stroke-linecap="round" stroke-linejoin="round"><rect x="3" y="3" width="274" height="454" rx="20" fill="#fff7df" stroke="#292449" stroke-width="3"/><rect x="10" y="10" width="260" height="440" rx="14" fill="#6db7fa"/><rect x="22" y="57" width="236" height="322" rx="9" fill="#fff7df" stroke="#292449" stroke-width="1.8"/><rect x="111.0" y="21" width="58" height="27" rx="13.5" fill="#fff7df" stroke="#292449" stroke-width="1.7999999999999998"/><text x="140" y="39" text-anchor="middle" font-family="Trebuchet MS, Arial, sans-serif" font-weight="700" font-size="13" letter-spacing="0.8" fill="#292449">V</text><path d="M34 33L44 28L40 40Z" fill="#fff7df" stroke="#292449" stroke-width="1.35" /><path d="M238 28L246 35L234 39Z" fill="#fff7df" stroke="#292449" stroke-width="1.35" /><rect x="22" y="390" width="236" height="51" rx="9" fill="#fff7df" stroke="#292449" stroke-width="1.8"/><text x="140" y="420" text-anchor="middle" font-family="Trebuchet MS, Arial, sans-serif" font-weight="700" font-size="12.5" letter-spacing="0.25" fill="#292449">THE HIEROPHANT</text><g clip-path="url(#scene)"><defs><clipPath id="scene"><rect x="23" y="58" width="234" height="320"/></clipPath></defs><path d="M44 320L44 160Q140 57 236 160L236 320M61 319L61 166Q140 83 219 166L219 319" fill="none" stroke="#292449" stroke-width="1.5" /><rect x="39.0" y="181" width="20" height="158" rx="0" fill="#fff7df" stroke="#292449" stroke-width="1.2000000000000002"/><rect x="35.0" y="175" width="28" height="8" rx="0" fill="#fff7df" stroke="#292449" stroke-width="1.2000000000000002"/><rect x="34.0" y="337" width="30" height="8" rx="0" fill="#fff7df" stroke="#292449" stroke-width="1.2000000000000002"/><path d="M43.0 188L43.0 331" fill="none" stroke="#292449" stroke-width="0.675" /><path d="M47.0 188L47.0 331" fill="none" stroke="#292449" stroke-width="0.675" /><path d="M51.0 188L51.0 331" fill="none" stroke="#292449" stroke-width="0.675" /><path d="M55.0 188L55.0 331" fill="none" stroke="#292449" stroke-width="0.675" /><rect x="221.0" y="181" width="20" height="158" rx="0" fill="#fff7df" stroke="#292449" stroke-width="1.2000000000000002"/><rect x="217.0" y="175" width="28" height="8" rx="0" fill="#fff7df" stroke="#292449" stroke-width="1.2000000000000002"/><rect x="216.0" y="337" width="30" height="8" rx="0" fill="#fff7df" stroke="#292449" stroke-width="1.2000000000000002"/><path d="M225.0 188L225.0 331" fill="none" stroke="#292449" stroke-width="0.675" /><path d="M229.0 188L229.0 331" fill="none" stroke="#292449" stroke-width="0.675" /><path d="M233.0 188L233.0 331" fill="none" stroke="#292449" stroke-width="0.675" /><path d="M237.0 188L237.0 331" fill="none" stroke="#292449" stroke-width="0.675" /><rect x="100" y="186" width="80" height="138" rx="3" fill="#fff7df" stroke="#292449" stroke-width="1.35"/><rect x="94" y="249" width="12" height="71" rx="0" fill="#ffc85e" stroke="#292449" stroke-width="1.2000000000000002"/><rect x="174" y="249" width="12" height="71" rx="0" fill="#ffc85e" stroke="#292449" stroke-width="1.2000000000000002"/><path d="M131.32 155.76Q140 146.8 148.4 155.48Q151.48 165 146.44 175.08L140 179L133.28 175.22Q128.52 165 131.32 155.76Z" fill="#fff7df" stroke="#292449" stroke-width="1.2000000000000002" /><path d="M130.62 158.7Q133.7 149.04 140 149.88Q145.6 149.04 149.24 158.56" fill="none" stroke="#292449" stroke-width="1.275" /><path d="M133 162q3 -2 5 0q-2 1 -5 0M142 162q3 -2 5 0q-2 1 -5 0M133 159q3 -1 5 0M142 159q3 -1 5 0M140 163l-2 7h4M136 173q4 -1 8 0M137 175q3 1 6 0" fill="none" stroke="#292449" stroke-width="0.675" /><path d="M131.6 166l2 5M148.4 166l-2 5" fill="none" stroke="#292449" stroke-width="0.55" /><path d="M129 182Q112.5 189 117.5 227L101.5 314Q140 322 178.5 314L162.5 227Q167.5 189 151 182Z" fill="#ff7fab" stroke="#292449" stroke-width="1.5" /><path d="M131 189Q140 205 150 189M131 209L123 308M149 209L162 307M140 224L136 314M146 229L150 314" fill="none" stroke="#292449" stroke-width="0.8999999999999999" /><path d="M107.5 299L104.5 311" fill="none" stroke="#292449" stroke-width="0.675" /><path d="M111.5 299L108.5 311" fill="none" stroke="#292449" stroke-width="0.675" /><path d="M115.5 299L112.5 311" fill="none" stroke="#292449" stroke-width="0.675" /><path d="M119.5 299L116.5 311" fill="none" stroke="#292449" stroke-width="0.675" /><path d="M123.5 299L120.5 311" fill="none" stroke="#292449" stroke-width="0.675" /><path d="M115 234Q140 227 165 234M115 247L166 247M124 250L118 313M157 249L161 313" fill="none" stroke="#292449" stroke-width="0.9750000000000001" /><path d="M120 209L106 248L117 250M161 208L175 248L162 250" fill="#fff7df" stroke="#292449" stroke-width="1.35" /><path d="M122 152L125 116L132 121L140 105L148 121L155 116L158 152Z" fill="#ffc85e" stroke="#292449" stroke-width="1.35" /><path d="M126 132L155 132M125 143L156 143" fill="none" stroke="#292449" stroke-width="0.8999999999999999" /><path d="M119 206L99 196L98 173M162 207L180 230L193 220" fill="#fff7df" stroke="#292449" stroke-width="1.35" /><path d="M94 175L94 160M98 176L98 157M102 178L104 164" fill="none" stroke="#292449" stroke-width="1.0499999999999998" /><path d="M194 152L194 299" fill="none" stroke="#292449" stroke-width="1.9500000000000002" /><path d="M185 167L203 167" fill="none" stroke="#292449" stroke-width="1.5" /><path d="M181 182L207 182" fill="none" stroke="#292449" stroke-width="1.5" /><path d="M177 198L211 198" fill="none" stroke="#292449" stroke-width="1.5" /><rect x="87" y="315" width="106" height="13" rx="0" fill="#fff7df" stroke="#292449" stroke-width="1.2000000000000002"/><rect x="70" y="328" width="140" height="13" rx="0" fill="#fff7df" stroke="#292449" stroke-width="1.2000000000000002"/><path d="M72.18 314.74Q79 307.7 85.6 314.52Q88.02 322 84.06 329.92L79 333L73.72 330.03Q69.98 322 72.18 314.74Z" fill="#fff7df" stroke="#292449" stroke-width="1.2000000000000002" /><path d="M71.63 317.05Q74.05 309.46 79 310.12Q83.4 309.46 86.26 316.94" fill="none" stroke="#292449" stroke-width="1.275" /><path d="M72 319q3 -2 5 0q-2 1 -5 0M81 319q3 -2 5 0q-2 1 -5 0M72 316q3 -1 5 0M81 316q3 -1 5 0M79 320l-2 7h4M75 330q4 -1 8 0M76 332q3 1 6 0" fill="none" stroke="#292449" stroke-width="0.675" /><path d="M72.4 323l2 5M85.6 323l-2 5" fill="none" stroke="#292449" stroke-width="0.55" /><path d="M68 337Q62.5 344 67.5 382L51.5 378Q79 386 106.5 378L90.5 382Q95.5 344 90 337Z" fill="#a68bfa" stroke="#292449" stroke-width="1.5" /><path d="M70 344Q79 360 89 344M70 364L62 372M88 364L101 371M79 379L75 378M85 384L89 378" fill="none" stroke="#292449" stroke-width="0.8999999999999999" /><path d="M57.5 363L54.5 375" fill="none" stroke="#292449" stroke-width="0.675" /><path d="M61.5 363L58.5 375" fill="none" stroke="#292449" stroke-width="0.675" /><path d="M65.5 363L62.5 375" fill="none" stroke="#292449" stroke-width="0.675" /><path d="M69.5 363L66.5 375" fill="none" stroke="#292449" stroke-width="0.675" /><path d="M73.5 363L70.5 375" fill="none" stroke="#292449" stroke-width="0.675" /><path d="M194.18 314.74Q201 307.7 207.6 314.52Q210.02 322 206.06 329.92L201 333L195.72 330.03Q191.98 322 194.18 314.74Z" fill="#fff7df" stroke="#292449" stroke-width="1.2000000000000002" /><path d="M193.63 317.05Q196.05 309.46 201 310.12Q205.4 309.46 208.26 316.94" fill="none" stroke="#292449" stroke-width="1.275" /><path d="M194 319q3 -2 5 0q-2 1 -5 0M203 319q3 -2 5 0q-2 1 -5 0M194 316q3 -1 5 0M203 316q3 -1 5 0M201 320l-2 7h4M197 330q4 -1 8 0M198 332q3 1 6 0" fill="none" stroke="#292449" stroke-width="0.675" /><path d="M194.4 323l2 5M207.6 323l-2 5" fill="none" stroke="#292449" stroke-width="0.55" /><path d="M190 337Q184.5 344 189.5 382L173.5 378Q201 386 228.5 378L212.5 382Q217.5 344 212 337Z" fill="#a68bfa" stroke="#292449" stroke-width="1.5" /><path d="M192 344Q201 360 211 344M192 364L184 372M210 364L223 371M201 379L197 378M207 384L211 378" fill="none" stroke="#292449" stroke-width="0.8999999999999999" /><path d="M179.5 363L176.5 375" fill="none" stroke="#292449" stroke-width="0.675" /><path d="M183.5 363L180.5 375" fill="none" stroke="#292449" stroke-width="0.675" /><path d="M187.5 363L184.5 375" fill="none" stroke="#292449" stroke-width="0.675" /><path d="M191.5 363L188.5 375" fill="none" stroke="#292449" stroke-width="0.675" /><path d="M195.5 363L192.5 375" fill="none" stroke="#292449" stroke-width="0.675" /><g transform="translate(127 354) rotate(-32)"><circle cx="0" cy="-13" r="7" fill="#ffc85e" stroke="#292449" stroke-width="1.2000000000000002"/><path d="M0 -6L0 19" fill="none" stroke="#292449" stroke-width="2.25" /><path d="M0 13L8 13L8 18M0 18L6 18" fill="none" stroke="#292449" stroke-width="1.5" /></g><g transform="translate(153 354) rotate(32)"><circle cx="0" cy="-13" r="7" fill="#ffc85e" stroke="#292449" stroke-width="1.2000000000000002"/><path d="M0 -6L0 19" fill="none" stroke="#292449" stroke-width="2.25" /><path d="M0 13L8 13L8 18M0 18L6 18" fill="none" stroke="#292449" stroke-width="1.5" /></g></g></g></svg>