<svg xmlns="http://www.w3.org/2000/svg" viewBox="0 0 280 460" role="img" aria-labelledby="title desc"><title id="title">The Lovers</title><desc id="desc">Two figures stand between trees beneath a winged figure and a small sun.</desc><g stroke-linecap="round" stroke-linejoin="round"><rect x="3" y="3" width="274" height="454" rx="20" fill="#fff7df" stroke="#292449" stroke-width="3"/><rect x="10" y="10" width="260" height="440" rx="14" fill="#ff7fab"/><rect x="22" y="57" width="236" height="322" rx="9" fill="#fff7df" stroke="#292449" stroke-width="1.8"/><rect x="111.0" y="21" width="58" height="27" rx="13.5" fill="#fff7df" stroke="#292449" stroke-width="1.7999999999999998"/><text x="140" y="39" text-anchor="middle" font-family="Trebuchet MS, Arial, sans-serif" font-weight="700" font-size="13" letter-spacing="0.8" fill="#292449">VI</text><path d="M34 33L44 28L40 40Z" fill="#fff7df" stroke="#292449" stroke-width="1.35" /><path d="M238 28L246 35L234 39Z" fill="#fff7df" stroke="#292449" stroke-width="1.35" /><rect x="22" y="390" width="236" height="51" rx="9" fill="#fff7df" stroke="#292449" stroke-width="1.8"/><text x="140" y="420" text-anchor="middle" font-family="Trebuchet MS, Arial, sans-serif" font-weight="700" font-size="12.5" letter-spacing="0.25" fill="#292449">THE LOVERS</text><g clip-path="url(#scene)"><defs><clipPath id="scene"><rect x="23" y="58" width="234" height="320"/></clipPath></defs><path d="M166.0 109.0L181.0 109.0" fill="none" stroke="#292449" stroke-width="1.2000000000000002" /><g transform="translate(140 109) rotate(22.5)"><path d="M26 -2Q33 -7 38 0Q34 2 26 2" fill="#ffc85e" stroke="#292449" stroke-width="0.8999999999999999" /></g><path d="M158.4 127.4L169.0 138.0" fill="none" stroke="#292449" stroke-width="1.2000000000000002" /><g transform="translate(140 109) rotate(67.5)"><path d="M26 -2Q33 -7 38 0Q34 2 26 2" fill="#ffc85e" stroke="#292449" stroke-width="0.8999999999999999" /></g><path d="M140.0 135.0L140.0 150.0" fill="none" stroke="#292449" stroke-width="1.2000000000000002" /><g transform="translate(140 109) rotate(112.5)"><path d="M26 -2Q33 -7 38 0Q34 2 26 2" fill="#ffc85e" stroke="#292449" stroke-width="0.8999999999999999" /></g><path d="M121.6 127.4L111.0 138.0" fill="none" stroke="#292449" stroke-width="1.2000000000000002" /><g transform="translate(140 109) rotate(157.5)"><path d="M26 -2Q33 -7 38 0Q34 2 26 2" fill="#ffc85e" stroke="#292449" stroke-width="0.8999999999999999" /></g><path d="M114.0 109.0L99.0 109.0" fill="none" stroke="#292449" stroke-width="1.2000000000000002" /><g transform="translate(140 109) rotate(202.5)"><path d="M26 -2Q33 -7 38 0Q34 2 26 2" fill="#ffc85e" stroke="#292449" stroke-width="0.8999999999999999" /></g><path d="M121.6 90.6L111.0 80.0" fill="none" stroke="#292449" stroke-width="1.2000000000000002" /><g transform="translate(140 109) rotate(247.49999999999997)"><path d="M26 -2Q33 -7 38 0Q34 2 26 2" fill="#ffc85e" stroke="#292449" stroke-width="0.8999999999999999" /></g><path d="M140.0 83.0L140.0 68.0" fill="none" stroke="#292449" stroke-width="1.2000000000000002" /><g transform="translate(140 109) rotate(292.5)"><path d="M26 -2Q33 -7 38 0Q34 2 26 2" fill="#ffc85e" stroke="#292449" stroke-width="0.8999999999999999" /></g><path d="M158.4 90.6L169.0 80.0" fill="none" stroke="#292449" stroke-width="1.2000000000000002" /><g transform="translate(140 109) rotate(337.5)"><path d="M26 -2Q33 -7 38 0Q34 2 26 2" fill="#ffc85e" stroke="#292449" stroke-width="0.8999999999999999" /></g><circle cx="140" cy="109" r="23" fill="#ffc85e" stroke="#292449" stroke-width="1.35"/><circle cx="140" cy="109" r="19" fill="none" stroke="#292449" stroke-width="0.75"/><g transform="translate(140 144) scale(0.8)"><g transform="scale(-1 1)"><path d="M0 2C24 -19 49 -34 68 -26C56 -18 60 -5 37 15L8 40Z" fill="#fff7df" stroke="#292449" stroke-width="1.35" /><path d="M10 19Q29 -2 53 -19" fill="none" stroke="#292449" stroke-width="0.8250000000000001" /><path d="M14 16Q33 -4 55 -20" fill="none" stroke="#292449" stroke-width="0.8250000000000001" /><path d="M18 13Q37 -6 57 -21" fill="none" stroke="#292449" stroke-width="0.8250000000000001" /><path d="M22 10Q41 -8 59 -22" fill="none" stroke="#292449" stroke-width="0.8250000000000001" /><path d="M26 7Q45 -10 61 -23" fill="none" stroke="#292449" stroke-width="0.8250000000000001" /><path d="M30 4Q49 -12 63 -24" fill="none" stroke="#292449" stroke-width="0.8250000000000001" /></g><g transform="scale(1 1)"><path d="M0 2C24 -19 49 -34 68 -26C56 -18 60 -5 37 15L8 40Z" fill="#fff7df" stroke="#292449" stroke-width="1.35" /><path d="M10 19Q29 -2 53 -19" fill="none" stroke="#292449" stroke-width="0.8250000000000001" /><path d="M14 16Q33 -4 55 -20" fill="none" stroke="#292449" stroke-width="0.8250000000000001" /><path d="M18 13Q37 -6 57 -21" fill="none" stroke="#292449" stroke-width="0.8250000000000001" /><path d="M22 10Q41 -8 59 -22" fill="none" stroke="#292449" stroke-width="0.8250000000000001" /><path d="M26 7Q45 -10 61 -23" fill="none" stroke="#292449" stroke-width="0.8250000000000001" /><path d="M30 4Q49 -12 63 -24" fill="none" stroke="#292449" stroke-width="0.8250000000000001" /></g></g><path d="M133.18 142.74Q140 135.7 146.6 142.52Q149.02 150 145.06 157.92L140 161L134.72 158.03Q130.98 150 133.18 142.74Z" fill="#fff7df" stroke="#292449" stroke-width="1.2000000000000002" /><path d="M132.63 145.05Q135.05 137.46 140 138.12Q144.4 137.46 147.26 144.94" fill="none" stroke="#292449" stroke-width="1.275" /><path d="M133 147q3 -2 5 0q-2 1 -5 0M142 147q3 -2 5 0q-2 1 -5 0M133 144q3 -1 5 0M142 144q3 -1 5 0M140 148l-2 7h4M136 158q4 -1 8 0M137 160q3 1 6 0" fill="none" stroke="#292449" stroke-width="0.675" /><path d="M133.4 151l2 5M146.6 151l-2 5" fill="none" stroke="#292449" stroke-width="0.55" /><path d="M123 164Q140 180 157 164L169 199L111 199Z" fill="#ff7fab" stroke="#292449" stroke-width="1.2000000000000002" /><path d="M22 333L63 266L93 300L123 253L181 303L216 267L258 333Z" fill="#fff7df" stroke="#292449" stroke-width="1.125" /><path d="M63 266L57 301L69 290L79 302M123 253L114 294L132 281L143 300M216 267L205 293L220 304" fill="none" stroke="#292449" stroke-width="0.8999999999999999" /><path d="M37 316L32 326" fill="none" stroke="#292449" stroke-width="0.675" /><path d="M40 316L35 326" fill="none" stroke="#292449" stroke-width="0.675" /><path d="M43 316L38 326" fill="none" stroke="#292449" stroke-width="0.675" /><path d="M46 316L41 326" fill="none" stroke="#292449" stroke-width="0.675" /><path d="M70 315L65 325" fill="none" stroke="#292449" stroke-width="0.675" /><path d="M73 315L68 325" fill="none" stroke="#292449" stroke-width="0.675" /><path d="M76 315L71 325" fill="none" stroke="#292449" stroke-width="0.675" /><path d="M79 315L74 325" fill="none" stroke="#292449" stroke-width="0.675" /><path d="M89 324L84 334" fill="none" stroke="#292449" stroke-width="0.675" /><path d="M92 324L87 334" fill="none" stroke="#292449" stroke-width="0.675" /><path d="M95 324L90 334" fill="none" stroke="#292449" stroke-width="0.675" /><path d="M98 324L93 334" fill="none" stroke="#292449" stroke-width="0.675" /><path d="M135 304L130 314" fill="none" stroke="#292449" stroke-width="0.675" /><path d="M138 304L133 314" fill="none" stroke="#292449" stroke-width="0.675" /><path d="M141 304L136 314" fill="none" stroke="#292449" stroke-width="0.675" /><path d="M144 304L139 314" fill="none" stroke="#292449" stroke-width="0.675" /><path d="M162 319L157 329" fill="none" stroke="#292449" stroke-width="0.675" /><path d="M165 319L160 329" fill="none" stroke="#292449" stroke-width="0.675" /><path d="M168 319L163 329" fill="none" stroke="#292449" stroke-width="0.675" /><path d="M171 319L166 329" fill="none" stroke="#292449" stroke-width="0.675" /><path d="M211 317L206 327" fill="none" stroke="#292449" stroke-width="0.675" /><path d="M214 317L209 327" fill="none" stroke="#292449" stroke-width="0.675" /><path d="M217 317L212 327" fill="none" stroke="#292449" stroke-width="0.675" /><path d="M220 317L215 327" fill="none" stroke="#292449" stroke-width="0.675" /><path d="M233 320L228 330" fill="none" stroke="#292449" stroke-width="0.675" /><path d="M236 320L231 330" fill="none" stroke="#292449" stroke-width="0.675" /><path d="M239 320L234 330" fill="none" stroke="#292449" stroke-width="0.675" /><path d="M242 320L237 330" fill="none" stroke="#292449" stroke-width="0.675" /><path d="M22 346Q62 333 101 347T178 344T258 349L258 378L22 378Z" fill="#fff7df" stroke="#292449" stroke-width="1.2000000000000002" /><path d="M25 360q6 -2 12 0" fill="none" stroke="#292449" stroke-width="0.675" /><path d="M52 360q6 -2 12 0" fill="none" stroke="#292449" stroke-width="0.675" /><path d="M79 360q6 -2 12 0" fill="none" stroke="#292449" stroke-width="0.675" /><path d="M106 360q6 -2 12 0" fill="none" stroke="#292449" stroke-width="0.675" /><path d="M133 360q6 -2 12 0" fill="none" stroke="#292449" stroke-width="0.675" /><path d="M160 360q6 -2 12 0" fill="none" stroke="#292449" stroke-width="0.675" /><path d="M187 360q6 -2 12 0" fill="none" stroke="#292449" stroke-width="0.675" /><path d="M214 360q6 -2 12 0" fill="none" stroke="#292449" stroke-width="0.675" /><path d="M241 360q6 -2 12 0" fill="none" stroke="#292449" stroke-width="0.675" /><path d="M34 371q6 -2 12 0" fill="none" stroke="#292449" stroke-width="0.675" /><path d="M61 371q6 -2 12 0" fill="none" stroke="#292449" stroke-width="0.675" /><path d="M88 371q6 -2 12 0" fill="none" stroke="#292449" stroke-width="0.675" /><path d="M115 371q6 -2 12 0" fill="none" stroke="#292449" stroke-width="0.675" /><path d="M142 371q6 -2 12 0" fill="none" stroke="#292449" stroke-width="0.675" /><path d="M169 371q6 -2 12 0" fill="none" stroke="#292449" stroke-width="0.675" /><path d="M196 371q6 -2 12 0" fill="none" stroke="#292449" stroke-width="0.675" /><path d="M223 371q6 -2 12 0" fill="none" stroke="#292449" stroke-width="0.675" /><path d="M250 371q6 -2 12 0" fill="none" stroke="#292449" stroke-width="0.675" /><path d="M25 382q6 -2 12 0" fill="none" stroke="#292449" stroke-width="0.675" /><path d="M52 382q6 -2 12 0" fill="none" stroke="#292449" stroke-width="0.675" /><path d="M79 382q6 -2 12 0" fill="none" stroke="#292449" stroke-width="0.675" /><path d="M106 382q6 -2 12 0" fill="none" stroke="#292449" stroke-width="0.675" /><path d="M133 382q6 -2 12 0" fill="none" stroke="#292449" stroke-width="0.675" /><path d="M160 382q6 -2 12 0" fill="none" stroke="#292449" stroke-width="0.675" /><path d="M187 382q6 -2 12 0" fill="none" stroke="#292449" stroke-width="0.675" /><path d="M214 382q6 -2 12 0" fill="none" stroke="#292449" stroke-width="0.675" /><path d="M241 382q6 -2 12 0" fill="none" stroke="#292449" stroke-width="0.675" /><path d="M34 393q6 -2 12 0" fill="none" stroke="#292449" stroke-width="0.675" /><path d="M61 393q6 -2 12 0" fill="none" stroke="#292449" stroke-width="0.675" /><path d="M88 393q6 -2 12 0" fill="none" stroke="#292449" stroke-width="0.675" /><path d="M115 393q6 -2 12 0" fill="none" stroke="#292449" stroke-width="0.675" /><path d="M142 393q6 -2 12 0" fill="none" stroke="#292449" stroke-width="0.675" /><path d="M169 393q6 -2 12 0" fill="none" stroke="#292449" stroke-width="0.675" /><path d="M196 393q6 -2 12 0" fill="none" stroke="#292449" stroke-width="0.675" /><path d="M223 393q6 -2 12 0" fill="none" stroke="#292449" stroke-width="0.675" /><path d="M250 393q6 -2 12 0" fill="none" stroke="#292449" stroke-width="0.675" /><path d="M38 322Q47 250.5 43 192M52 322Q51 250.5 47 192" fill="none" stroke="#292449" stroke-width="2.25" /><path d="M45 302.5Q23 297.5 12 273.5" fill="none" stroke="#292449" stroke-width="1.35" /><g transform="translate(23 289.5) rotate(-30) scale(0.66)"><path d="M0 0C-10 -5 -9 -14 0 -23C8 -14 8 -5 0 0Z" fill="#63dbc5" stroke="#292449" stroke-width="0.9750000000000001" /><path d="M0 -1L0 -21M0 -8L-4 -12M0 -12L4 -16" fill="none" stroke="#292449" stroke-width="0.675" /></g><g transform="translate(19 282.5) rotate(-42) scale(0.66)"><path d="M0 0C-10 -5 -9 -14 0 -23C8 -14 8 -5 0 0Z" fill="#63dbc5" stroke="#292449" stroke-width="0.9750000000000001" /><path d="M0 -1L0 -21M0 -8L-4 -12M0 -12L4 -16" fill="none" stroke="#292449" stroke-width="0.675" /></g><g transform="translate(15 275.5) rotate(-54) scale(0.66)"><path d="M0 0C-10 -5 -9 -14 0 -23C8 -14 8 -5 0 0Z" fill="#63dbc5" stroke="#292449" stroke-width="0.9750000000000001" /><path d="M0 -1L0 -21M0 -8L-4 -12M0 -12L4 -16" fill="none" stroke="#292449" stroke-width="0.675" /></g><circle cx="23" cy="296.5" r="4" fill="#ff7fab" stroke="#292449" stroke-width="1.0499999999999998"/><path d="M45 285.6Q67 280.6 78 256.6" fill="none" stroke="#292449" stroke-width="1.35" /><g transform="translate(67 272.6) rotate(30) scale(0.66)"><path d="M0 0C-10 -5 -9 -14 0 -23C8 -14 8 -5 0 0Z" fill="#63dbc5" stroke="#292449" stroke-width="0.9750000000000001" /><path d="M0 -1L0 -21M0 -8L-4 -12M0 -12L4 -16" fill="none" stroke="#292449" stroke-width="0.675" /></g><g transform="translate(71 265.6) rotate(42) scale(0.66)"><path d="M0 0C-10 -5 -9 -14 0 -23C8 -14 8 -5 0 0Z" fill="#63dbc5" stroke="#292449" stroke-width="0.9750000000000001" /><path d="M0 -1L0 -21M0 -8L-4 -12M0 -12L4 -16" fill="none" stroke="#292449" stroke-width="0.675" /></g><g transform="translate(75 258.6) rotate(54) scale(0.66)"><path d="M0 0C-10 -5 -9 -14 0 -23C8 -14 8 -5 0 0Z" fill="#63dbc5" stroke="#292449" stroke-width="0.9750000000000001" /><path d="M0 -1L0 -21M0 -8L-4 -12M0 -12L4 -16" fill="none" stroke="#292449" stroke-width="0.675" /></g><circle cx="67" cy="279.6" r="4" fill="#ff7fab" stroke="#292449" stroke-width="1.0499999999999998"/><path d="M45 268.7Q23 263.7 12 239.7" fill="none" stroke="#292449" stroke-width="1.35" /><g transform="translate(23 255.7) rotate(-30) scale(0.66)"><path d="M0 0C-10 -5 -9 -14 0 -23C8 -14 8 -5 0 0Z" fill="#63dbc5" stroke="#292449" stroke-width="0.9750000000000001" /><path d="M0 -1L0 -21M0 -8L-4 -12M0 -12L4 -16" fill="none" stroke="#292449" stroke-width="0.675" /></g><g transform="translate(19 248.7) rotate(-42) scale(0.66)"><path d="M0 0C-10 -5 -9 -14 0 -23C8 -14 8 -5 0 0Z" fill="#63dbc5" stroke="#292449" stroke-width="0.9750000000000001" /><path d="M0 -1L0 -21M0 -8L-4 -12M0 -12L4 -16" fill="none" stroke="#292449" stroke-width="0.675" /></g><g transform="translate(15 241.7) rotate(-54) scale(0.66)"><path d="M0 0C-10 -5 -9 -14 0 -23C8 -14 8 -5 0 0Z" fill="#63dbc5" stroke="#292449" stroke-width="0.9750000000000001" /><path d="M0 -1L0 -21M0 -8L-4 -12M0 -12L4 -16" fill="none" stroke="#292449" stroke-width="0.675" /></g><circle cx="23" cy="262.7" r="4" fill="#ff7fab" stroke="#292449" stroke-width="1.0499999999999998"/><path d="M45 250.5Q67 245.5 78 221.5" fill="none" stroke="#292449" stroke-width="1.35" /><g transform="translate(67 237.5) rotate(30) scale(0.66)"><path d="M0 0C-10 -5 -9 -14 0 -23C8 -14 8 -5 0 0Z" fill="#63dbc5" stroke="#292449" stroke-width="0.9750000000000001" /><path d="M0 -1L0 -21M0 -8L-4 -12M0 -12L4 -16" fill="none" stroke="#292449" stroke-width="0.675" /></g><g transform="translate(71 230.5) rotate(42) scale(0.66)"><path d="M0 0C-10 -5 -9 -14 0 -23C8 -14 8 -5 0 0Z" fill="#63dbc5" stroke="#292449" stroke-width="0.9750000000000001" /><path d="M0 -1L0 -21M0 -8L-4 -12M0 -12L4 -16" fill="none" stroke="#292449" stroke-width="0.675" /></g><g transform="translate(75 223.5) rotate(54) scale(0.66)"><path d="M0 0C-10 -5 -9 -14 0 -23C8 -14 8 -5 0 0Z" fill="#63dbc5" stroke="#292449" stroke-width="0.9750000000000001" /><path d="M0 -1L0 -21M0 -8L-4 -12M0 -12L4 -16" fill="none" stroke="#292449" stroke-width="0.675" /></g><circle cx="67" cy="244.5" r="4" fill="#ff7fab" stroke="#292449" stroke-width="1.0499999999999998"/><path d="M45 233.6Q23 228.6 12 204.6" fill="none" stroke="#292449" stroke-width="1.35" /><g transform="translate(23 220.6) rotate(-30) scale(0.66)"><path d="M0 0C-10 -5 -9 -14 0 -23C8 -14 8 -5 0 0Z" fill="#63dbc5" stroke="#292449" stroke-width="0.9750000000000001" /><path d="M0 -1L0 -21M0 -8L-4 -12M0 -12L4 -16" fill="none" stroke="#292449" stroke-width="0.675" /></g><g transform="translate(19 213.6) rotate(-42) scale(0.66)"><path d="M0 0C-10 -5 -9 -14 0 -23C8 -14 8 -5 0 0Z" fill="#63dbc5" stroke="#292449" stroke-width="0.9750000000000001" /><path d="M0 -1L0 -21M0 -8L-4 -12M0 -12L4 -16" fill="none" stroke="#292449" stroke-width="0.675" /></g><g transform="translate(15 206.6) rotate(-54) scale(0.66)"><path d="M0 0C-10 -5 -9 -14 0 -23C8 -14 8 -5 0 0Z" fill="#63dbc5" stroke="#292449" stroke-width="0.9750000000000001" /><path d="M0 -1L0 -21M0 -8L-4 -12M0 -12L4 -16" fill="none" stroke="#292449" stroke-width="0.675" /></g><circle cx="23" cy="227.6" r="4" fill="#ff7fab" stroke="#292449" stroke-width="1.0499999999999998"/><g transform="translate(45 192) rotate(0) scale(0.8)"><path d="M0 0C-10 -5 -9 -14 0 -23C8 -14 8 -5 0 0Z" fill="#63dbc5" stroke="#292449" stroke-width="0.9750000000000001" /><path d="M0 -1L0 -21M0 -8L-4 -12M0 -12L4 -16" fill="none" stroke="#292449" stroke-width="0.675" /></g><path d="M232 322Q241 250.5 237 192M246 322Q245 250.5 241 192" fill="none" stroke="#292449" stroke-width="2.25" /><path d="M239 302.5Q217 297.5 206 273.5" fill="none" stroke="#292449" stroke-width="1.35" /><g transform="translate(217 289.5) rotate(-30) scale(0.66)"><path d="M0 0C-10 -5 -9 -14 0 -23C8 -14 8 -5 0 0Z" fill="#63dbc5" stroke="#292449" stroke-width="0.9750000000000001" /><path d="M0 -1L0 -21M0 -8L-4 -12M0 -12L4 -16" fill="none" stroke="#292449" stroke-width="0.675" /></g><g transform="translate(213 282.5) rotate(-42) scale(0.66)"><path d="M0 0C-10 -5 -9 -14 0 -23C8 -14 8 -5 0 0Z" fill="#63dbc5" stroke="#292449" stroke-width="0.9750000000000001" /><path d="M0 -1L0 -21M0 -8L-4 -12M0 -12L4 -16" fill="none" stroke="#292449" stroke-width="0.675" /></g><g transform="translate(209 275.5) rotate(-54) scale(0.66)"><path d="M0 0C-10 -5 -9 -14 0 -23C8 -14 8 -5 0 0Z" fill="#63dbc5" stroke="#292449" stroke-width="0.9750000000000001" /><path d="M0 -1L0 -21M0 -8L-4 -12M0 -12L4 -16" fill="none" stroke="#292449" stroke-width="0.675" /></g><path d="M239 285.6Q261 280.6 272 256.6" fill="none" stroke="#292449" stroke-width="1.35" /><g transform="translate(261 272.6) rotate(30) scale(0.66)"><path d="M0 0C-10 -5 -9 -14 0 -23C8 -14 8 -5 0 0Z" fill="#63dbc5" stroke="#292449" stroke-width="0.9750000000000001" /><path d="M0 -1L0 -21M0 -8L-4 -12M0 -12L4 -16" fill="none" stroke="#292449" stroke-width="0.675" /></g><g transform="translate(265 265.6) rotate(42) scale(0.66)"><path d="M0 0C-10 -5 -9 -14 0 -23C8 -14 8 -5 0 0Z" fill="#63dbc5" stroke="#292449" stroke-width="0.9750000000000001" /><path d="M0 -1L0 -21M0 -8L-4 -12M0 -12L4 -16" fill="none" stroke="#292449" stroke-width="0.675" /></g><g transform="translate(269 258.6) rotate(54) scale(0.66)"><path d="M0 0C-10 -5 -9 -14 0 -23C8 -14 8 -5 0 0Z" fill="#63dbc5" stroke="#292449" stroke-width="0.9750000000000001" /><path d="M0 -1L0 -21M0 -8L-4 -12M0 -12L4 -16" fill="none" stroke="#292449" stroke-width="0.675" /></g><path d="M239 268.7Q217 263.7 206 239.7" fill="none" stroke="#292449" stroke-width="1.35" /><g transform="translate(217 255.7) rotate(-30) scale(0.66)"><path d="M0 0C-10 -5 -9 -14 0 -23C8 -14 8 -5 0 0Z" fill="#63dbc5" stroke="#292449" stroke-width="0.9750000000000001" /><path d="M0 -1L0 -21M0 -8L-4 -12M0 -12L4 -16" fill="none" stroke="#292449" stroke-width="0.675" /></g><g transform="translate(213 248.7) rotate(-42) scale(0.66)"><path d="M0 0C-10 -5 -9 -14 0 -23C8 -14 8 -5 0 0Z" fill="#63dbc5" stroke="#292449" stroke-width="0.9750000000000001" /><path d="M0 -1L0 -21M0 -8L-4 -12M0 -12L4 -16" fill="none" stroke="#292449" stroke-width="0.675" /></g><g transform="translate(209 241.7) rotate(-54) scale(0.66)"><path d="M0 0C-10 -5 -9 -14 0 -23C8 -14 8 -5 0 0Z" fill="#63dbc5" stroke="#292449" stroke-width="0.9750000000000001" /><path d="M0 -1L0 -21M0 -8L-4 -12M0 -12L4 -16" fill="none" stroke="#292449" stroke-width="0.675" /></g><path d="M239 250.5Q261 245.5 272 221.5" fill="none" stroke="#292449" stroke-width="1.35" /><g transform="translate(261 237.5) rotate(30) scale(0.66)"><path d="M0 0C-10 -5 -9 -14 0 -23C8 -14 8 -5 0 0Z" fill="#63dbc5" stroke="#292449" stroke-width="0.9750000000000001" /><path d="M0 -1L0 -21M0 -8L-4 -12M0 -12L4 -16" fill="none" stroke="#292449" stroke-width="0.675" /></g><g transform="translate(265 230.5) rotate(42) scale(0.66)"><path d="M0 0C-10 -5 -9 -14 0 -23C8 -14 8 -5 0 0Z" fill="#63dbc5" stroke="#292449" stroke-width="0.9750000000000001" /><path d="M0 -1L0 -21M0 -8L-4 -12M0 -12L4 -16" fill="none" stroke="#292449" stroke-width="0.675" /></g><g transform="translate(269 223.5) rotate(54) scale(0.66)"><path d="M0 0C-10 -5 -9 -14 0 -23C8 -14 8 -5 0 0Z" fill="#63dbc5" stroke="#292449" stroke-width="0.9750000000000001" /><path d="M0 -1L0 -21M0 -8L-4 -12M0 -12L4 -16" fill="none" stroke="#292449" stroke-width="0.675" /></g><path d="M239 233.6Q217 228.6 206 204.6" fill="none" stroke="#292449" stroke-width="1.35" /><g transform="translate(217 220.6) rotate(-30) scale(0.66)"><path d="M0 0C-10 -5 -9 -14 0 -23C8 -14 8 -5 0 0Z" fill="#63dbc5" stroke="#292449" stroke-width="0.9750000000000001" /><path d="M0 -1L0 -21M0 -8L-4 -12M0 -12L4 -16" fill="none" stroke="#292449" stroke-width="0.675" /></g><g transform="translate(213 213.6) rotate(-42) scale(0.66)"><path d="M0 0C-10 -5 -9 -14 0 -23C8 -14 8 -5 0 0Z" fill="#63dbc5" stroke="#292449" stroke-width="0.9750000000000001" /><path d="M0 -1L0 -21M0 -8L-4 -12M0 -12L4 -16" fill="none" stroke="#292449" stroke-width="0.675" /></g><g transform="translate(209 206.6) rotate(-54) scale(0.66)"><path d="M0 0C-10 -5 -9 -14 0 -23C8 -14 8 -5 0 0Z" fill="#63dbc5" stroke="#292449" stroke-width="0.9750000000000001" /><path d="M0 -1L0 -21M0 -8L-4 -12M0 -12L4 -16" fill="none" stroke="#292449" stroke-width="0.675" /></g><g transform="translate(239 192) rotate(0) scale(0.8)"><path d="M0 0C-10 -5 -9 -14 0 -23C8 -14 8 -5 0 0Z" fill="#63dbc5" stroke="#292449" stroke-width="0.9750000000000001" /><path d="M0 -1L0 -21M0 -8L-4 -12M0 -12L4 -16" fill="none" stroke="#292449" stroke-width="0.675" /></g><path d="M84.56 226.08Q92 218.4 99.2 225.84Q101.84 234 97.52 242.64L92 246L86.24 242.76Q82.16 234 84.56 226.08Z" fill="#fff7df" stroke="#292449" stroke-width="1.2000000000000002" /><path d="M83.96 228.6Q86.6 220.32 92 221.04Q96.8 220.32 99.92 228.48" fill="none" stroke="#292449" stroke-width="1.275" /><path d="M85 231q3 -2 5 0q-2 1 -5 0M94 231q3 -2 5 0q-2 1 -5 0M85 228q3 -1 5 0M94 228q3 -1 5 0M92 232l-2 7h4M88 242q4 -1 8 0M89 244q3 1 6 0" fill="none" stroke="#292449" stroke-width="0.675" /><path d="M84.8 235l2 5M99.2 235l-2 5" fill="none" stroke="#292449" stroke-width="0.55" /><path d="M81 249Q77.0 256 82.0 294L66.0 336Q92 344 118.0 336L102.0 294Q107.0 256 103 249Z" fill="#fff7df" stroke="#292449" stroke-width="1.5" /><path d="M83 256Q92 272 102 256M83 276L75 330M101 276L114 329M92 291L88 336M98 296L102 336" fill="none" stroke="#292449" stroke-width="0.8999999999999999" /><path d="M72.0 321L69.0 333" fill="none" stroke="#292449" stroke-width="0.675" /><path d="M76.0 321L73.0 333" fill="none" stroke="#292449" stroke-width="0.675" /><path d="M80.0 321L77.0 333" fill="none" stroke="#292449" stroke-width="0.675" /><path d="M84.0 321L81.0 333" fill="none" stroke="#292449" stroke-width="0.675" /><path d="M88.0 321L85.0 333" fill="none" stroke="#292449" stroke-width="0.675" /><path d="M75 263L65 288L54 276M109 263L119 288L130 276" fill="#fff7df" stroke="#292449" stroke-width="1.2000000000000002" /><path d="M83 337L82 357M101 337L102 357" fill="none" stroke="#292449" stroke-width="1.5" /><path d="M180.56 226.08Q188 218.4 195.2 225.84Q197.84 234 193.52 242.64L188 246L182.24 242.76Q178.16 234 180.56 226.08Z" fill="#fff7df" stroke="#292449" stroke-width="1.2000000000000002" /><path d="M179.96 228.6Q182.6 220.32 188 221.04Q192.8 220.32 195.92 228.48" fill="none" stroke="#292449" stroke-width="1.275" /><path d="M181 231q3 -2 5 0q-2 1 -5 0M190 231q3 -2 5 0q-2 1 -5 0M181 228q3 -1 5 0M190 228q3 -1 5 0M188 232l-2 7h4M184 242q4 -1 8 0M185 244q3 1 6 0" fill="none" stroke="#292449" stroke-width="0.675" /><path d="M180.8 235l2 5M195.2 235l-2 5" fill="none" stroke="#292449" stroke-width="0.55" /><path d="M177 249Q173.0 256 178.0 294L162.0 336Q188 344 214.0 336L198.0 294Q203.0 256 199 249Z" fill="#63dbc5" stroke="#292449" stroke-width="1.5" /><path d="M179 256Q188 272 198 256M179 276L171 330M197 276L210 329M188 291L184 336M194 296L198 336" fill="none" stroke="#292449" stroke-width="0.8999999999999999" /><path d="M168.0 321L165.0 333" fill="none" stroke="#292449" stroke-width="0.675" /><path d="M172.0 321L169.0 333" fill="none" stroke="#292449" stroke-width="0.675" /><path d="M176.0 321L173.0 333" fill="none" stroke="#292449" stroke-width="0.675" /><path d="M180.0 321L177.0 333" fill="none" stroke="#292449" stroke-width="0.675" /><path d="M184.0 321L181.0 333" fill="none" stroke="#292449" stroke-width="0.675" /><path d="M171 263L161 288L150 276M205 263L215 288L226 276" fill="#fff7df" stroke="#292449" stroke-width="1.2000000000000002" /><path d="M179 337L178 357M197 337L198 357" fill="none" stroke="#292449" stroke-width="1.5" /><path d="M118 290Q140 310 161 290" fill="none" stroke="#292449" stroke-width="0.8250000000000001" /></g></g></svg>