<svg xmlns="http://www.w3.org/2000/svg" viewBox="0 0 280 460" role="img" aria-labelledby="title desc"><title id="title">The Chariot</title><desc id="desc">An armoured figure stands in a wheeled carriage beneath a starred canopy and above two sphinxes.</desc><g stroke-linecap="round" stroke-linejoin="round"><rect x="3" y="3" width="274" height="454" rx="20" fill="#fff7df" stroke="#292449" stroke-width="3"/><rect x="10" y="10" width="260" height="440" rx="14" fill="#ffc85e"/><rect x="22" y="57" width="236" height="322" rx="9" fill="#fff7df" stroke="#292449" stroke-width="1.8"/><rect x="111.0" y="21" width="58" height="27" rx="13.5" fill="#fff7df" stroke="#292449" stroke-width="1.7999999999999998"/><text x="140" y="39" text-anchor="middle" font-family="Trebuchet MS, Arial, sans-serif" font-weight="700" font-size="13" letter-spacing="0.8" fill="#292449">VII</text><path d="M34 33L44 28L40 40Z" fill="#fff7df" stroke="#292449" stroke-width="1.35" /><path d="M238 28L246 35L234 39Z" fill="#fff7df" stroke="#292449" stroke-width="1.35" /><rect x="22" y="390" width="236" height="51" rx="9" fill="#fff7df" stroke="#292449" stroke-width="1.8"/><text x="140" y="420" text-anchor="middle" font-family="Trebuchet MS, Arial, sans-serif" font-weight="700" font-size="12.5" letter-spacing="0.25" fill="#292449">THE CHARIOT</text><g clip-path="url(#scene)"><defs><clipPath id="scene"><rect x="23" y="58" width="234" height="320"/></clipPath></defs><path d="M57 133Q140 107 223 133L218 150L62 150Z" fill="#63dbc5" stroke="#292449" stroke-width="1.35" /><path d="M72.00,131.00L73.06,133.54L75.80,133.76L73.71,135.56L74.35,138.24L72.00,136.80L69.65,138.24L70.29,135.56L68.20,133.76L70.94,133.54Z" fill="#fff7df" stroke="#292449" stroke-width="1.0499999999999998" /><path d="M108.00,131.00L109.06,133.54L111.80,133.76L109.71,135.56L110.35,138.24L108.00,136.80L105.65,138.24L106.29,135.56L104.20,133.76L106.94,133.54Z" fill="#fff7df" stroke="#292449" stroke-width="1.0499999999999998" /><path d="M140.00,131.00L141.06,133.54L143.80,133.76L141.71,135.56L142.35,138.24L140.00,136.80L137.65,138.24L138.29,135.56L136.20,133.76L138.94,133.54Z" fill="#fff7df" stroke="#292449" stroke-width="1.0499999999999998" /><path d="M173.00,131.00L174.06,133.54L176.80,133.76L174.71,135.56L175.35,138.24L173.00,136.80L170.65,138.24L171.29,135.56L169.20,133.76L171.94,133.54Z" fill="#fff7df" stroke="#292449" stroke-width="1.0499999999999998" /><path d="M207.00,131.00L208.06,133.54L210.80,133.76L208.71,135.56L209.35,138.24L207.00,136.80L204.65,138.24L205.29,135.56L203.20,133.76L205.94,133.54Z" fill="#fff7df" stroke="#292449" stroke-width="1.0499999999999998" /><path d="M66 149L66 297M214 149L214 297" fill="none" stroke="#292449" stroke-width="2.25" /><path d="M131.32 182.76Q140 173.8 148.4 182.48Q151.48 192 146.44 202.08L140 206L133.28 202.22Q128.52 192 131.32 182.76Z" fill="#fff7df" stroke="#292449" stroke-width="1.2000000000000002" /><path d="M130.62 185.7Q133.7 176.04 140 176.88Q145.6 176.04 149.24 185.56" fill="none" stroke="#292449" stroke-width="1.275" /><path d="M133 189q3 -2 5 0q-2 1 -5 0M142 189q3 -2 5 0q-2 1 -5 0M133 186q3 -1 5 0M142 186q3 -1 5 0M140 190l-2 7h4M136 200q4 -1 8 0M137 202q3 1 6 0" fill="none" stroke="#292449" stroke-width="0.675" /><path d="M131.6 193l2 5M148.4 193l-2 5" fill="none" stroke="#292449" stroke-width="0.55" /><path d="M126.0 179l-2 -13l9 6l7 -13l7 13l9 -6l-2 13Z" fill="#ffc85e" stroke="#292449" stroke-width="1.2000000000000002" /><path d="M127.0 182L153.0 182" fill="none" stroke="#292449" stroke-width="0.9750000000000001" /><circle cx="132" cy="178" r="1.4" fill="#ff7fab" stroke="#292449" stroke-width="0.6000000000000001"/><circle cx="140" cy="178" r="1.4" fill="#ff7fab" stroke="#292449" stroke-width="0.6000000000000001"/><circle cx="148" cy="178" r="1.4" fill="#ff7fab" stroke="#292449" stroke-width="0.6000000000000001"/><path d="M118 211L162 211L178 270L103 270Z" fill="#fff7df" stroke="#292449" stroke-width="1.4249999999999998" /><path d="M117 228L162 228M117 244L164 244M128 213L128 260M152 213L152 260" fill="none" stroke="#292449" stroke-width="0.9750000000000001" /><path d="M118 220L91 254L104 269L127 239M162 220L187 253L175 269L153 239" fill="#fff7df" stroke="#292449" stroke-width="1.2000000000000002" /><rect x="79" y="267" width="122" height="63" rx="0" fill="#ffc85e" stroke="#292449" stroke-width="1.5"/><rect x="87" y="275" width="106" height="42" rx="0" fill="#63dbc5" stroke="#292449" stroke-width="1.2000000000000002"/><path d="M140.00,279.00L143.06,287.61L151.31,283.69L147.39,291.94L156.00,295.00L147.39,298.06L151.31,306.31L143.06,302.39L140.00,311.00L136.94,302.39L128.69,306.31L132.61,298.06L124.00,295.00L132.61,291.94L128.69,283.69L136.94,287.61Z" fill="#fff7df" stroke="#292449" stroke-width="1.0499999999999998" /><circle cx="66" cy="310" r="23" fill="#fff7df" stroke="#292449" stroke-width="1.5"/><circle cx="66" cy="310" r="17" fill="none" stroke="#292449" stroke-width="0.8999999999999999"/><circle cx="214" cy="310" r="23" fill="#fff7df" stroke="#292449" stroke-width="1.5"/><circle cx="214" cy="310" r="17" fill="none" stroke="#292449" stroke-width="0.8999999999999999"/><path d="M63 354Q65 334 81 334L97 335L99 312L117 312L122 342L111 353Z" fill="#63dbc5" stroke="#292449" stroke-width="1.35" /><path d="M101.8 308.4Q108 302.0 114.0 308.2Q116.2 315 112.6 322.2L108 325L103.2 322.3Q99.8 315 101.8 308.4Z" fill="#fff7df" stroke="#292449" stroke-width="1.2000000000000002" /><path d="M101.3 310.5Q103.5 303.6 108 304.2Q112.0 303.6 114.6 310.4" fill="none" stroke="#292449" stroke-width="1.275" /><path d="M101 312q3 -2 5 0q-2 1 -5 0M110 312q3 -2 5 0q-2 1 -5 0M101 309q3 -1 5 0M110 309q3 -1 5 0M108 313l-2 7h4M104 323q4 -1 8 0M105 325q3 1 6 0" fill="none" stroke="#292449" stroke-width="0.675" /><path d="M102.0 316l2 5M114.0 316l-2 5" fill="none" stroke="#292449" stroke-width="0.55" /><path d="M97 305L119 305L123 326L95 326Z" fill="#ffc85e" stroke="#292449" stroke-width="1.2000000000000002" /><path d="M77 342L76 358M103 341L103 358" fill="none" stroke="#292449" stroke-width="1.2000000000000002" /><path d="M156 354Q158 334 174 334L190 335L192 312L210 312L215 342L204 353Z" fill="#fff7df" stroke="#292449" stroke-width="1.35" /><path d="M194.8 308.4Q201 302.0 207.0 308.2Q209.2 315 205.6 322.2L201 325L196.2 322.3Q192.8 315 194.8 308.4Z" fill="#fff7df" stroke="#292449" stroke-width="1.2000000000000002" /><path d="M194.3 310.5Q196.5 303.6 201 304.2Q205.0 303.6 207.6 310.4" fill="none" stroke="#292449" stroke-width="1.275" /><path d="M194 312q3 -2 5 0q-2 1 -5 0M203 312q3 -2 5 0q-2 1 -5 0M194 309q3 -1 5 0M203 309q3 -1 5 0M201 313l-2 7h4M197 323q4 -1 8 0M198 325q3 1 6 0" fill="none" stroke="#292449" stroke-width="0.675" /><path d="M195.0 316l2 5M207.0 316l-2 5" fill="none" stroke="#292449" stroke-width="0.55" /><path d="M190 305L212 305L216 326L188 326Z" fill="#ffc85e" stroke="#292449" stroke-width="1.2000000000000002" /><path d="M170 342L169 358M196 341L196 358" fill="none" stroke="#292449" stroke-width="1.2000000000000002" /></g></g></svg>