<svg xmlns="http://www.w3.org/2000/svg" viewBox="0 0 280 460" role="img" aria-labelledby="title desc"><title id="title">Judgement</title><desc id="desc">A winged figure sounds a trumpet with a cross banner above three figures lifting their arms from water.</desc><g stroke-linecap="round" stroke-linejoin="round"><rect x="3" y="3" width="274" height="454" rx="20" fill="#fff7df" stroke="#292449" stroke-width="3"/><rect x="10" y="10" width="260" height="440" rx="14" fill="#a68bfa"/><rect x="22" y="57" width="236" height="322" rx="9" fill="#fff7df" stroke="#292449" stroke-width="1.8"/><rect x="111.0" y="21" width="58" height="27" rx="13.5" fill="#fff7df" stroke="#292449" stroke-width="1.7999999999999998"/><text x="140" y="39" text-anchor="middle" font-family="Trebuchet MS, Arial, sans-serif" font-weight="700" font-size="13" letter-spacing="0.8" fill="#292449">XX</text><path d="M34 33L44 28L40 40Z" fill="#fff7df" stroke="#292449" stroke-width="1.35" /><path d="M238 28L246 35L234 39Z" fill="#fff7df" stroke="#292449" stroke-width="1.35" /><rect x="22" y="390" width="236" height="51" rx="9" fill="#fff7df" stroke="#292449" stroke-width="1.8"/><text x="140" y="420" text-anchor="middle" font-family="Trebuchet MS, Arial, sans-serif" font-weight="700" font-size="12.5" letter-spacing="0.25" fill="#292449">JUDGEMENT</text><g clip-path="url(#scene)"><defs><clipPath id="scene"><rect x="23" y="58" width="234" height="320"/></clipPath></defs><g transform="translate(140 134) scale(0.95)"><g transform="scale(-1 1)"><path d="M0 2C24 -19 49 -34 68 -26C56 -18 60 -5 37 15L8 40Z" fill="#fff7df" stroke="#292449" stroke-width="1.35" /><path d="M10 19Q29 -2 53 -19" fill="none" stroke="#292449" stroke-width="0.8250000000000001" /><path d="M14 16Q33 -4 55 -20" fill="none" stroke="#292449" stroke-width="0.8250000000000001" /><path d="M18 13Q37 -6 57 -21" fill="none" stroke="#292449" stroke-width="0.8250000000000001" /><path d="M22 10Q41 -8 59 -22" fill="none" stroke="#292449" stroke-width="0.8250000000000001" /><path d="M26 7Q45 -10 61 -23" fill="none" stroke="#292449" stroke-width="0.8250000000000001" /><path d="M30 4Q49 -12 63 -24" fill="none" stroke="#292449" stroke-width="0.8250000000000001" /></g><g transform="scale(1 1)"><path d="M0 2C24 -19 49 -34 68 -26C56 -18 60 -5 37 15L8 40Z" fill="#fff7df" stroke="#292449" stroke-width="1.35" /><path d="M10 19Q29 -2 53 -19" fill="none" stroke="#292449" stroke-width="0.8250000000000001" /><path d="M14 16Q33 -4 55 -20" fill="none" stroke="#292449" stroke-width="0.8250000000000001" /><path d="M18 13Q37 -6 57 -21" fill="none" stroke="#292449" stroke-width="0.8250000000000001" /><path d="M22 10Q41 -8 59 -22" fill="none" stroke="#292449" stroke-width="0.8250000000000001" /><path d="M26 7Q45 -10 61 -23" fill="none" stroke="#292449" stroke-width="0.8250000000000001" /><path d="M30 4Q49 -12 63 -24" fill="none" stroke="#292449" stroke-width="0.8250000000000001" /></g></g><path d="M131.94 136.42Q140 128.1 147.8 136.16Q150.66 145 145.98 154.36L140 158L133.76 154.49Q129.34 145 131.94 136.42Z" fill="#fff7df" stroke="#292449" stroke-width="1.2000000000000002" /><path d="M131.29 139.15Q134.15 130.18 140 130.96Q145.2 130.18 148.58 139.02" fill="none" stroke="#292449" stroke-width="1.275" /><path d="M133 142q3 -2 5 0q-2 1 -5 0M142 142q3 -2 5 0q-2 1 -5 0M133 139q3 -1 5 0M142 139q3 -1 5 0M140 143l-2 7h4M136 153q4 -1 8 0M137 155q3 1 6 0" fill="none" stroke="#292449" stroke-width="0.675" /><path d="M132.2 146l2 5M147.8 146l-2 5" fill="none" stroke="#292449" stroke-width="0.55" /><path d="M121 161L159 161L173 193L107 193Z" fill="#6db7fa" stroke="#292449" stroke-width="1.2000000000000002" /><path d="M126 166L104 184L82 187M152 166L162 177L110 190" fill="#fff7df" stroke="#292449" stroke-width="1.275" /><path d="M123 175L73 193L64 184L56 207L70 204L126 182Z" fill="#ffc85e" stroke="#292449" stroke-width="1.35" /><path d="M99 189L101 232L127 232L123 182Z" fill="#fff7df" stroke="#292449" stroke-width="1.2000000000000002" /><path d="M108 197L113 226M101 210L120 210" fill="none" stroke="#ff7fab" stroke-width="4.5" /><path d="M22 308L63 241L93 275L123 228L181 278L216 242L258 308Z" fill="#fff7df" stroke="#292449" stroke-width="1.125" /><path d="M63 241L57 276L69 265L79 277M123 228L114 269L132 256L143 275M216 242L205 268L220 279" fill="none" stroke="#292449" stroke-width="0.8999999999999999" /><path d="M37 291L32 301" fill="none" stroke="#292449" stroke-width="0.675" /><path d="M40 291L35 301" fill="none" stroke="#292449" stroke-width="0.675" /><path d="M43 291L38 301" fill="none" stroke="#292449" stroke-width="0.675" /><path d="M46 291L41 301" fill="none" stroke="#292449" stroke-width="0.675" /><path d="M70 290L65 300" fill="none" stroke="#292449" stroke-width="0.675" /><path d="M73 290L68 300" fill="none" stroke="#292449" stroke-width="0.675" /><path d="M76 290L71 300" fill="none" stroke="#292449" stroke-width="0.675" /><path d="M79 290L74 300" fill="none" stroke="#292449" stroke-width="0.675" /><path d="M89 299L84 309" fill="none" stroke="#292449" stroke-width="0.675" /><path d="M92 299L87 309" fill="none" stroke="#292449" stroke-width="0.675" /><path d="M95 299L90 309" fill="none" stroke="#292449" stroke-width="0.675" /><path d="M98 299L93 309" fill="none" stroke="#292449" stroke-width="0.675" /><path d="M135 279L130 289" fill="none" stroke="#292449" stroke-width="0.675" /><path d="M138 279L133 289" fill="none" stroke="#292449" stroke-width="0.675" /><path d="M141 279L136 289" fill="none" stroke="#292449" stroke-width="0.675" /><path d="M144 279L139 289" fill="none" stroke="#292449" stroke-width="0.675" /><path d="M162 294L157 304" fill="none" stroke="#292449" stroke-width="0.675" /><path d="M165 294L160 304" fill="none" stroke="#292449" stroke-width="0.675" /><path d="M168 294L163 304" fill="none" stroke="#292449" stroke-width="0.675" /><path d="M171 294L166 304" fill="none" stroke="#292449" stroke-width="0.675" /><path d="M211 292L206 302" fill="none" stroke="#292449" stroke-width="0.675" /><path d="M214 292L209 302" fill="none" stroke="#292449" stroke-width="0.675" /><path d="M217 292L212 302" fill="none" stroke="#292449" stroke-width="0.675" /><path d="M220 292L215 302" fill="none" stroke="#292449" stroke-width="0.675" /><path d="M233 295L228 305" fill="none" stroke="#292449" stroke-width="0.675" /><path d="M236 295L231 305" fill="none" stroke="#292449" stroke-width="0.675" /><path d="M239 295L234 305" fill="none" stroke="#292449" stroke-width="0.675" /><path d="M242 295L237 305" fill="none" stroke="#292449" stroke-width="0.675" /><path d="M22 330Q68 322 119 330T216 330T258 330L258 378L22 378Z" fill="#6db7fa" stroke="#292449" stroke-width="1.125" /><path d="M26 338q6 -3 14 0q6 3 15 0" fill="none" stroke="#292449" stroke-width="0.675" /><path d="M65 338q6 -3 14 0q6 3 15 0" fill="none" stroke="#292449" stroke-width="0.675" /><path d="M104 338q6 -3 14 0q6 3 15 0" fill="none" stroke="#292449" stroke-width="0.675" /><path d="M143 338q6 -3 14 0q6 3 15 0" fill="none" stroke="#292449" stroke-width="0.675" /><path d="M182 338q6 -3 14 0q6 3 15 0" fill="none" stroke="#292449" stroke-width="0.675" /><path d="M221 338q6 -3 14 0q6 3 15 0" fill="none" stroke="#292449" stroke-width="0.675" /><path d="M34 346q6 -3 14 0q6 3 15 0" fill="none" stroke="#292449" stroke-width="0.675" /><path d="M73 346q6 -3 14 0q6 3 15 0" fill="none" stroke="#292449" stroke-width="0.675" /><path d="M112 346q6 -3 14 0q6 3 15 0" fill="none" stroke="#292449" stroke-width="0.675" /><path d="M151 346q6 -3 14 0q6 3 15 0" fill="none" stroke="#292449" stroke-width="0.675" /><path d="M190 346q6 -3 14 0q6 3 15 0" fill="none" stroke="#292449" stroke-width="0.675" /><path d="M229 346q6 -3 14 0q6 3 15 0" fill="none" stroke="#292449" stroke-width="0.675" /><path d="M26 354q6 -3 14 0q6 3 15 0" fill="none" stroke="#292449" stroke-width="0.675" /><path d="M65 354q6 -3 14 0q6 3 15 0" fill="none" stroke="#292449" stroke-width="0.675" /><path d="M104 354q6 -3 14 0q6 3 15 0" fill="none" stroke="#292449" stroke-width="0.675" /><path d="M143 354q6 -3 14 0q6 3 15 0" fill="none" stroke="#292449" stroke-width="0.675" /><path d="M182 354q6 -3 14 0q6 3 15 0" fill="none" stroke="#292449" stroke-width="0.675" /><path d="M221 354q6 -3 14 0q6 3 15 0" fill="none" stroke="#292449" stroke-width="0.675" /><path d="M34 362q6 -3 14 0q6 3 15 0" fill="none" stroke="#292449" stroke-width="0.675" /><path d="M73 362q6 -3 14 0q6 3 15 0" fill="none" stroke="#292449" stroke-width="0.675" /><path d="M112 362q6 -3 14 0q6 3 15 0" fill="none" stroke="#292449" stroke-width="0.675" /><path d="M151 362q6 -3 14 0q6 3 15 0" fill="none" stroke="#292449" stroke-width="0.675" /><path d="M190 362q6 -3 14 0q6 3 15 0" fill="none" stroke="#292449" stroke-width="0.675" /><path d="M229 362q6 -3 14 0q6 3 15 0" fill="none" stroke="#292449" stroke-width="0.675" /><path d="M26 370q6 -3 14 0q6 3 15 0" fill="none" stroke="#292449" stroke-width="0.675" /><path d="M65 370q6 -3 14 0q6 3 15 0" fill="none" stroke="#292449" stroke-width="0.675" /><path d="M104 370q6 -3 14 0q6 3 15 0" fill="none" stroke="#292449" stroke-width="0.675" /><path d="M143 370q6 -3 14 0q6 3 15 0" fill="none" stroke="#292449" stroke-width="0.675" /><path d="M182 370q6 -3 14 0q6 3 15 0" fill="none" stroke="#292449" stroke-width="0.675" /><path d="M221 370q6 -3 14 0q6 3 15 0" fill="none" stroke="#292449" stroke-width="0.675" /><path d="M34 378q6 -3 14 0q6 3 15 0" fill="none" stroke="#292449" stroke-width="0.675" /><path d="M73 378q6 -3 14 0q6 3 15 0" fill="none" stroke="#292449" stroke-width="0.675" /><path d="M112 378q6 -3 14 0q6 3 15 0" fill="none" stroke="#292449" stroke-width="0.675" /><path d="M151 378q6 -3 14 0q6 3 15 0" fill="none" stroke="#292449" stroke-width="0.675" /><path d="M190 378q6 -3 14 0q6 3 15 0" fill="none" stroke="#292449" stroke-width="0.675" /><path d="M229 378q6 -3 14 0q6 3 15 0" fill="none" stroke="#292449" stroke-width="0.675" /><path d="M49 330L100 330L110 348L42 348Z" fill="#ffc85e" stroke="#292449" stroke-width="1.275" /><path d="M70.8 274.4Q77 268.0 83.0 274.2Q85.2 281 81.6 288.2L77 291L72.2 288.3Q68.8 281 70.8 274.4Z" fill="#fff7df" stroke="#292449" stroke-width="1.2000000000000002" /><path d="M70.3 276.5Q72.5 269.6 77 270.2Q81.0 269.6 83.6 276.4" fill="none" stroke="#292449" stroke-width="1.275" /><path d="M70 278q3 -2 5 0q-2 1 -5 0M79 278q3 -2 5 0q-2 1 -5 0M70 275q3 -1 5 0M79 275q3 -1 5 0M77 279l-2 7h4M73 289q4 -1 8 0M74 291q3 1 6 0" fill="none" stroke="#292449" stroke-width="0.675" /><path d="M71.0 282l2 5M83.0 282l-2 5" fill="none" stroke="#292449" stroke-width="0.55" /><path d="M66 294Q63.5 301 68.5 339L52.5 335Q77 343 101.5 335L85.5 339Q90.5 301 88 294Z" fill="#fff7df" stroke="#292449" stroke-width="1.5" /><path d="M68 301Q77 317 87 301M68 321L60 329M86 321L99 328M77 336L73 335M83 341L87 335" fill="none" stroke="#292449" stroke-width="0.8999999999999999" /><path d="M58.5 320L55.5 332" fill="none" stroke="#292449" stroke-width="0.675" /><path d="M62.5 320L59.5 332" fill="none" stroke="#292449" stroke-width="0.675" /><path d="M66.5 320L63.5 332" fill="none" stroke="#292449" stroke-width="0.675" /><path d="M70.5 320L67.5 332" fill="none" stroke="#292449" stroke-width="0.675" /><path d="M74.5 320L71.5 332" fill="none" stroke="#292449" stroke-width="0.675" /><path d="M64 302L52 280L55 264M90 302L103 280L100 264" fill="none" stroke="#292449" stroke-width="1.9500000000000002" /><path d="M115 351L166 351L176 369L108 369Z" fill="#ffc85e" stroke="#292449" stroke-width="1.275" /><path d="M136.8 295.4Q143 289.0 149.0 295.2Q151.2 302 147.6 309.2L143 312L138.2 309.3Q134.8 302 136.8 295.4Z" fill="#fff7df" stroke="#292449" stroke-width="1.2000000000000002" /><path d="M136.3 297.5Q138.5 290.6 143 291.2Q147.0 290.6 149.6 297.4" fill="none" stroke="#292449" stroke-width="1.275" /><path d="M136 299q3 -2 5 0q-2 1 -5 0M145 299q3 -2 5 0q-2 1 -5 0M136 296q3 -1 5 0M145 296q3 -1 5 0M143 300l-2 7h4M139 310q4 -1 8 0M140 312q3 1 6 0" fill="none" stroke="#292449" stroke-width="0.675" /><path d="M137.0 303l2 5M149.0 303l-2 5" fill="none" stroke="#292449" stroke-width="0.55" /><path d="M132 315Q129.5 322 134.5 360L118.5 356Q143 364 167.5 356L151.5 360Q156.5 322 154 315Z" fill="#fff7df" stroke="#292449" stroke-width="1.5" /><path d="M134 322Q143 338 153 322M134 342L126 350M152 342L165 349M143 357L139 356M149 362L153 356" fill="none" stroke="#292449" stroke-width="0.8999999999999999" /><path d="M124.5 341L121.5 353" fill="none" stroke="#292449" stroke-width="0.675" /><path d="M128.5 341L125.5 353" fill="none" stroke="#292449" stroke-width="0.675" /><path d="M132.5 341L129.5 353" fill="none" stroke="#292449" stroke-width="0.675" /><path d="M136.5 341L133.5 353" fill="none" stroke="#292449" stroke-width="0.675" /><path d="M140.5 341L137.5 353" fill="none" stroke="#292449" stroke-width="0.675" /><path d="M130 323L118 301L121 285M156 323L169 301L166 285" fill="none" stroke="#292449" stroke-width="1.9500000000000002" /><path d="M182 324L233 324L243 342L175 342Z" fill="#ffc85e" stroke="#292449" stroke-width="1.275" /><path d="M203.8 268.4Q210 262.0 216.0 268.2Q218.2 275 214.6 282.2L210 285L205.2 282.3Q201.8 275 203.8 268.4Z" fill="#fff7df" stroke="#292449" stroke-width="1.2000000000000002" /><path d="M203.3 270.5Q205.5 263.6 210 264.2Q214.0 263.6 216.6 270.4" fill="none" stroke="#292449" stroke-width="1.275" /><path d="M203 272q3 -2 5 0q-2 1 -5 0M212 272q3 -2 5 0q-2 1 -5 0M203 269q3 -1 5 0M212 269q3 -1 5 0M210 273l-2 7h4M206 283q4 -1 8 0M207 285q3 1 6 0" fill="none" stroke="#292449" stroke-width="0.675" /><path d="M204.0 276l2 5M216.0 276l-2 5" fill="none" stroke="#292449" stroke-width="0.55" /><path d="M199 288Q196.5 295 201.5 333L185.5 329Q210 337 234.5 329L218.5 333Q223.5 295 221 288Z" fill="#fff7df" stroke="#292449" stroke-width="1.5" /><path d="M201 295Q210 311 220 295M201 315L193 323M219 315L232 322M210 330L206 329M216 335L220 329" fill="none" stroke="#292449" stroke-width="0.8999999999999999" /><path d="M191.5 314L188.5 326" fill="none" stroke="#292449" stroke-width="0.675" /><path d="M195.5 314L192.5 326" fill="none" stroke="#292449" stroke-width="0.675" /><path d="M199.5 314L196.5 326" fill="none" stroke="#292449" stroke-width="0.675" /><path d="M203.5 314L200.5 326" fill="none" stroke="#292449" stroke-width="0.675" /><path d="M207.5 314L204.5 326" fill="none" stroke="#292449" stroke-width="0.675" /><path d="M197 296L185 274L188 258M223 296L236 274L233 258" fill="none" stroke="#292449" stroke-width="1.9500000000000002" /></g></g></svg>