<svg xmlns="http://www.w3.org/2000/svg" viewBox="0 0 280 460" role="img" aria-labelledby="title desc"><title id="title">Ace of Swords</title><desc id="desc">1 long sword with a wrapped grip arranged in a parchment framed landscape.</desc><g stroke-linecap="round" stroke-linejoin="round"><rect x="3" y="3" width="274" height="454" rx="20" fill="#fff7df" stroke="#292449" stroke-width="3"/><rect x="10" y="10" width="260" height="440" rx="14" fill="#a68bfa"/><rect x="22" y="57" width="236" height="322" rx="9" fill="#fff7df" stroke="#292449" stroke-width="1.8"/><rect x="111.0" y="21" width="58" height="27" rx="13.5" fill="#fff7df" stroke="#292449" stroke-width="1.7999999999999998"/><text x="140" y="39" text-anchor="middle" font-family="Trebuchet MS, Arial, sans-serif" font-weight="700" font-size="13" letter-spacing="0.8" fill="#292449">1</text><path d="M34 33L44 28L40 40Z" fill="#fff7df" stroke="#292449" stroke-width="1.35" /><path d="M238 28L246 35L234 39Z" fill="#fff7df" stroke="#292449" stroke-width="1.35" /><rect x="22" y="390" width="236" height="51" rx="9" fill="#fff7df" stroke="#292449" stroke-width="1.8"/><text x="140" y="420" text-anchor="middle" font-family="Trebuchet MS, Arial, sans-serif" font-weight="700" font-size="12.5" letter-spacing="0.25" fill="#292449">ACE OF SWORDS</text><g clip-path="url(#scene)"><defs><clipPath id="scene"><rect x="23" y="58" width="234" height="320"/></clipPath></defs><path d="M36 89L46 115M31 95L41 121" fill="none" stroke="#292449" stroke-width="0.6000000000000001" /><path d="M235 89L245 115M230 95L240 121" fill="none" stroke="#292449" stroke-width="0.6000000000000001" /><path d="M34 283L44 309M29 289L39 315" fill="none" stroke="#292449" stroke-width="0.6000000000000001" /><path d="M234 283L244 309M229 289L239 315" fill="none" stroke="#292449" stroke-width="0.6000000000000001" /><path d="M27 370L61 351L94 367L137 354L177 367L216 349L252 371" fill="none" stroke="#292449" stroke-width="0.8999999999999999" /><path d="M30 377L66 362M185 376L218 359" fill="none" stroke="#292449" stroke-width="0.675" /><g transform="translate(140 325) scale(1.25)"><path d="M-21 6C-35 7 -34 -7 -23 -9C-24 -24 -6 -30 4 -19C15 -27 29 -18 26 -8C39 -3 32 9 19 6Z" fill="#fff7df" stroke="#292449" stroke-width="0.8999999999999999" /><path d="M-18 1Q-8 -4 2 1M9 1Q15 -3 21 1" fill="none" stroke="#292449" stroke-width="0.675" /></g><path d="M119 310L119 283Q123 273 129 279L132 267Q137 259 142 268L149 271L151 255Q157 251 160 259L156 283L168 277Q175 280 170 288L158 307Z" fill="#fff7df" stroke="#292449" stroke-width="1.275" /><path d="M130 282L130 294M143 281L140 296M153 282L149 297" fill="none" stroke="#292449" stroke-width="0.8999999999999999" /><g transform="translate(140 199) rotate(0) scale(1.7)"><path d="M0 -44L6 -32L4 17L-4 17L-6 -32Z" fill="#fff7df" stroke="#292449" stroke-width="1.2000000000000002" /><path d="M0 -41L0 15" fill="none" stroke="#292449" stroke-width="0.75" /><path d="M-16 18Q0 12 16 18L16 22L-16 22Z" fill="#a68bfa" stroke="#292449" stroke-width="1.2000000000000002" /><rect x="-3" y="23" width="6" height="19" rx="0" fill="#6db7fa" stroke="#292449" stroke-width="1.125"/><path d="M-3 26L3 28" fill="none" stroke="#292449" stroke-width="0.675" /><path d="M-3 30L3 32" fill="none" stroke="#292449" stroke-width="0.675" /><path d="M-3 34L3 36" fill="none" stroke="#292449" stroke-width="0.675" /><path d="M-3 38L3 40" fill="none" stroke="#292449" stroke-width="0.675" /><circle cx="0" cy="45" r="4" fill="#a68bfa" stroke="#292449" stroke-width="1.0499999999999998"/></g></g></g></svg>